# xmcd CD database file
#
# Track frame offsets:
#	150
#	15702
#	30475
#	46350
#	57367
#	75382
#	91635
#	102932
#	114775
#	125280
#
# Disc length: 1999 seconds
#
# Revision: 0
# Processed by: cddbd v1.5.2PL0 Copyright (c) Steve Scherf et al.
# Submitted via: CDex 1.70beta2
#
DISCID=6707cd0a
DTITLE=Gerry Edge - Gerry Edge
DYEAR=1994
DGENRE=Country
TTITLE0=You'll Love Again
TTITLE1=Blue Nights
TTITLE2=Seemed Like The Right Thing To Do
TTITLE3=Does Your Mama Know
TTITLE4=Don't Get Too Close Beside Me
TTITLE5=Dream World
TTITLE6=You're Killin' Me
TTITLE7=Here I Go Again
TTITLE8=Just Another Town
TTITLE9=Amazing Grace
EXTD=YEAR: 1994
EXTT0=
EXTT1=
EXTT2=
EXTT3=
EXTT4=
EXTT5=
EXTT6=
EXTT7=
EXTT8=
EXTT9=
PLAYORDER=
